<svg width="323" height="100" viewBox="0 0 323 100" fill="none" xmlns="http://www.w3.org/2000/svg">
<path fill-rule="evenodd" clip-rule="evenodd" d="M50 100C77.6142 100 100 77.6142 100 50C100 22.3858 77.6142 0 50 0C22.3858 0 0 22.3858 0 50C0 65.3849 6.94857 79.1469 17.8786 88.3188C22.0943 77.8591 31.1112 56.634 38.6947 46.546L33.29 46.9344L32.9483 44.3434L32.5345 46.9887L21.2864 47.797L22.1736 43.8413L20.3697 47.8629L10.9375 48.5407C10.9375 48.5407 17.0628 34.8626 35.1114 33.3812L35.0662 33.3534C36.1237 33.2855 37.2116 33.2515 38.3299 33.2515C42.3613 33.2515 45.5429 33.5654 47.8746 34.1933C53.4194 35.6863 43.4457 31.4525 32.8739 32.01L26.4875 28.0962L27.848 25.5444L25.297 27.3667L23.7347 26.4093L26.1898 24.2703L22.7347 25.7964L17.3682 22.5077C17.3682 22.5077 42.2091 18.0162 54.9381 34.4334C55.0787 34.4002 55.2208 34.3669 55.3647 34.3335C77.4949 29.1842 89.0366 48.5407 89.0366 48.5407L82.0337 47.6205L79.8548 43.8413L80.5203 47.4216L65.9138 45.5021L65.8961 45.4935C52.2598 38.8986 53.3777 39.9555 56.7291 41.7229C58.6453 42.7336 60.4782 43.7426 62.1518 44.8392L61.9556 44.7758C77.7706 56.4819 72.1836 79.5325 72.1836 79.5325L67.7665 73.2008L69.0626 69.073L66.5507 71.4581L58.9992 60.6333L60.9375 56.6842L58.1488 59.4145L50.1485 47.9465C45.6227 51.9761 35.0449 64.5061 30.6885 96.1342C36.6301 98.6243 43.1544 100 50 100Z" fill="url(#paint0_linear)"/>
<path fill-rule="evenodd" clip-rule="evenodd" d="M278.408 17.358C278.408 20.9132 275.432 23.8896 271.794 23.8896C268.239 23.8896 265.263 20.9132 265.263 17.358C265.263 13.8029 268.239 10.7438 271.794 10.7438C275.432 10.7438 278.408 13.8029 278.408 17.358ZM140.377 70.3831V60.6921C134.222 61.0234 130.978 60.9406 130.978 56.4679V39.2396H140.377V28.9688H130.978V20.6032H120.248V56.4679C120.248 67.6497 125.322 72.0396 140.377 70.3831ZM155.646 70.3108V50.4817C155.646 41.7702 162.729 39.2812 168.312 39.9449V27.9977C163.062 27.9977 157.813 30.3208 155.646 35.9625V28.8274H144.896V70.3108H155.646ZM212.269 49.9758C212.269 62.3802 202.464 71.954 190.249 71.954C178.034 71.954 168.312 62.3802 168.312 49.9758C168.312 37.5715 178.034 27.9977 190.249 27.9977C202.464 27.9977 212.269 37.5715 212.269 49.9758ZM190.249 61.273C183.912 61.273 178.993 56.6068 178.993 49.9758C178.993 43.3449 183.912 38.6787 190.249 38.6787C196.669 38.6787 201.588 43.3449 201.588 49.9758C201.588 56.6068 196.669 61.273 190.249 61.273ZM227.896 65.7359V80.9917H217.198V29.1589H227.896V34.0524C230.882 30.2371 235.277 27.9977 241.331 27.9977C252.443 27.9977 261.565 37.5359 261.565 49.8941C261.565 62.2523 252.443 71.7906 241.331 71.7906C235.277 71.7906 230.882 69.5512 227.896 65.7359ZM239.34 61.6838C232.779 61.6838 227.879 56.9508 227.879 49.9758C227.879 43.0009 232.779 38.2678 239.34 38.2678C245.984 38.2678 250.884 43.0009 250.884 49.9758C250.884 56.9508 245.984 61.6838 239.34 61.6838ZM277.176 29.2301H266.084V70.7216H277.176V29.2301ZM322.776 61.1314C319.207 67.625 312.152 71.954 304.018 71.954C291.402 71.954 282.106 62.3802 282.106 49.9758C282.106 37.5715 291.402 27.9977 304.018 27.9977C312.152 27.9977 319.207 32.3267 322.61 38.737L313.397 44.1483C311.737 40.735 308.168 38.5705 303.935 38.5705C297.544 38.5705 292.813 43.3158 292.813 49.9758C292.813 56.5526 297.544 61.2979 303.935 61.2979C308.251 61.2979 311.82 59.2167 313.48 55.8034L322.776 61.1314Z" fill="black"/>
<defs>
<linearGradient id="paint0_linear" x1="44.7665" y1="119.776" x2="119.751" y2="51.5292" gradientUnits="userSpaceOnUse">
<stop stop-color="#FFC1AB"/>
<stop offset="0.504515" stop-color="#FF78E0"/>
<stop offset="1" stop-color="#6B63E8"/>
</linearGradient>
</defs>
</svg>
